<?xml version="1.0" encoding="utf-8"?>
<!-- Generator: Adobe Illustrator 18.0.0, SVG Export Plug-In . SVG Version: 6.00 Build 0)  -->
<!DOCTYPE svg PUBLIC "-//W3C//DTD SVG 1.0//EN" "http://www.w3.org/TR/2001/REC-SVG-20010904/DTD/svg10.dtd">
<svg version="1.0" id="Layer_1" xmlns="http://www.w3.org/2000/svg" xmlns:xlink="http://www.w3.org/1999/xlink" x="0px" y="0px"
	 viewBox="0 0 1000 1000" enable-background="new 0 0 1000 1000" xml:space="preserve">
<g>
	
		<line fill="none" stroke="#F8BE15" stroke-width="17.9184" stroke-linecap="round" stroke-linejoin="round" stroke-miterlimit="10" x1="496.4" y1="166.6" x2="496.4" y2="821"/>
	
		<line fill="none" stroke="#F8BE15" stroke-width="17.9184" stroke-linecap="round" stroke-linejoin="round" stroke-miterlimit="10" x1="496.4" y1="191.8" x2="241.5" y2="446.6"/>
	
		<line fill="none" stroke="#F8BE15" stroke-width="17.9184" stroke-linecap="round" stroke-linejoin="round" stroke-miterlimit="10" x1="360.2" y1="238" x2="241.5" y2="356.7"/>
	
		<line fill="none" stroke="#F8BE15" stroke-width="17.9184" stroke-linecap="round" stroke-linejoin="round" stroke-miterlimit="10" x1="496.4" y1="281.7" x2="301.5" y2="476.6"/>
	
		<line fill="none" stroke="#F8BE15" stroke-width="17.9184" stroke-linecap="round" stroke-linejoin="round" stroke-miterlimit="10" x1="496.4" y1="371.7" x2="391.4" y2="476.6"/>
	
		<line fill="none" stroke="#F8BE15" stroke-width="17.9184" stroke-linecap="round" stroke-linejoin="round" stroke-miterlimit="10" x1="496.4" y1="521.6" x2="664.2" y2="689.4"/>
	
		<line fill="none" stroke="#F8BE15" stroke-width="17.9184" stroke-linecap="round" stroke-linejoin="round" stroke-miterlimit="10" x1="497.6" y1="612.8" x2="615.3" y2="730.5"/>
	
		<line fill="none" stroke="#F8BE15" stroke-width="17.9184" stroke-linecap="round" stroke-linejoin="round" stroke-miterlimit="10" x1="497.6" y1="702.8" x2="564.2" y2="769.3"/>
	
		<line fill="none" stroke="#F8BE15" stroke-width="17.9184" stroke-linecap="round" stroke-linejoin="round" stroke-miterlimit="10" x1="541.3" y1="476.6" x2="704.1" y2="639.4"/>
	
		<line fill="none" stroke="#F8BE15" stroke-width="17.9184" stroke-linecap="round" stroke-linejoin="round" stroke-miterlimit="10" x1="631.3" y1="476.6" x2="733.5" y2="578.8"/>
	
		<line fill="none" stroke="#F8BE15" stroke-width="17.9184" stroke-linecap="round" stroke-linejoin="round" stroke-miterlimit="10" x1="751.2" y1="476.6" x2="241.5" y2="476.6"/>
	<path fill="none" stroke="#F8BE15" stroke-width="40" stroke-linecap="round" stroke-miterlimit="10" d="M811.2,206.8
		c-209.9,0-314.8-119.9-314.8-119.9S391.4,206.8,181.6,206.8v271.5c0,112.3,52.4,218.1,141.7,286.2l173.1,131.9l173.1-131.9
		c89.3-68.1,141.7-173.9,141.7-286.2V206.8z"/>
	
		<path fill="none" stroke="#F8BE15" stroke-width="17.9184" stroke-linecap="round" stroke-linejoin="round" stroke-miterlimit="10" d="
		M496.4,166.6c47.6,35.9,132.6,84.7,254.9,97.2v214.6c0,93-44.2,182.1-118.1,238.5L496.4,821L359.6,716.8
		c-74-56.4-118.1-145.5-118.1-238.5V263.7C363.7,251.2,448.8,202.5,496.4,166.6"/>
</g>
</svg>
