<?xml version="1.0" encoding="utf-8"?>
<!-- Generator: Adobe Illustrator 18.0.0, SVG Export Plug-In . SVG Version: 6.00 Build 0)  -->
<!DOCTYPE svg PUBLIC "-//W3C//DTD SVG 1.0//EN" "http://www.w3.org/TR/2001/REC-SVG-20010904/DTD/svg10.dtd">
<svg version="1.0" xmlns="http://www.w3.org/2000/svg" xmlns:xlink="http://www.w3.org/1999/xlink" x="0px" y="0px"
	 viewBox="0 0 100 100" enable-background="new 0 0 100 100" xml:space="preserve">
<g id="Layer_1">
	<g>
		
			<line fill="none" stroke="#454545" stroke-width="2.4808" stroke-linecap="round" stroke-linejoin="round" stroke-miterlimit="10" x1="50.1" y1="19.8" x2="50.1" y2="73.9"/>
		
			<line fill="none" stroke="#454545" stroke-width="2.4808" stroke-linecap="round" stroke-linejoin="round" stroke-miterlimit="10" x1="50.1" y1="21.9" x2="29.1" y2="42.9"/>
		
			<line fill="none" stroke="#454545" stroke-width="2.4808" stroke-linecap="round" stroke-linejoin="round" stroke-miterlimit="10" x1="38.9" y1="25.7" x2="29.1" y2="35.5"/>
		
			<line fill="none" stroke="#454545" stroke-width="2.4808" stroke-linecap="round" stroke-linejoin="round" stroke-miterlimit="10" x1="50.1" y1="29.3" x2="34" y2="45.4"/>
		
			<line fill="none" stroke="#454545" stroke-width="2.4808" stroke-linecap="round" stroke-linejoin="round" stroke-miterlimit="10" x1="50.1" y1="36.7" x2="41.5" y2="45.4"/>
		
			<line fill="none" stroke="#454545" stroke-width="2.4808" stroke-linecap="round" stroke-linejoin="round" stroke-miterlimit="10" x1="50.1" y1="49.2" x2="64" y2="63"/>
		
			<line fill="none" stroke="#454545" stroke-width="2.4808" stroke-linecap="round" stroke-linejoin="round" stroke-miterlimit="10" x1="50.2" y1="56.7" x2="60" y2="66.4"/>
		
			<line fill="none" stroke="#454545" stroke-width="2.4808" stroke-linecap="round" stroke-linejoin="round" stroke-miterlimit="10" x1="50.2" y1="64.1" x2="55.8" y2="69.6"/>
		
			<line fill="none" stroke="#454545" stroke-width="2.4808" stroke-linecap="round" stroke-linejoin="round" stroke-miterlimit="10" x1="53.9" y1="45.4" x2="67.3" y2="58.9"/>
		
			<line fill="none" stroke="#454545" stroke-width="2.4808" stroke-linecap="round" stroke-linejoin="round" stroke-miterlimit="10" x1="61.3" y1="45.4" x2="69.8" y2="53.9"/>
		
			<line fill="none" stroke="#454545" stroke-width="2.4808" stroke-linecap="round" stroke-linejoin="round" stroke-miterlimit="10" x1="71.2" y1="45.4" x2="29.1" y2="45.4"/>
		<path fill="none" stroke="#454545" stroke-width="4" stroke-linecap="round" stroke-linejoin="round" stroke-miterlimit="10" d="
			M76.2,23.1c-17.4,0-26-9.9-26-9.9s-8.7,9.9-26,9.9v22.5c0,9.3,4.3,18,11.7,23.7l14.3,10.9l14.3-10.9c7.4-5.6,11.7-14.4,11.7-23.7
			V23.1z"/>
		
			<path fill="none" stroke="#454545" stroke-width="2.4808" stroke-linecap="round" stroke-linejoin="round" stroke-miterlimit="10" d="
			M50.1,19.8c3.9,3,11,7,21.1,8v17.8c0,7.7-3.7,15.1-9.8,19.7l-11.3,8.6l-11.3-8.6c-6.1-4.7-9.8-12-9.8-19.7V27.8
			C39.2,26.8,46.2,22.7,50.1,19.8"/>
	</g>
</g>
<g id="Layer_2">
</g>
</svg>
