<?xml version="1.0" encoding="utf-8"?>
<!-- Generator: Adobe Illustrator 18.0.0, SVG Export Plug-In . SVG Version: 6.00 Build 0)  -->
<!DOCTYPE svg PUBLIC "-//W3C//DTD SVG 1.0//EN" "http://www.w3.org/TR/2001/REC-SVG-20010904/DTD/svg10.dtd">
<svg version="1.0" id="Layer_1" xmlns="http://www.w3.org/2000/svg" xmlns:xlink="http://www.w3.org/1999/xlink" x="0px" y="0px"
	 viewBox="0 0 1000 1000" enable-background="new 0 0 1000 1000" xml:space="preserve">
<line fill="none" stroke="#333333" stroke-width="16" stroke-linecap="round" stroke-linejoin="round" stroke-miterlimit="10" x1="98.4" y1="910.9" x2="98.4" y2="148.6"/>
<line fill="none" stroke="#333333" stroke-width="16" stroke-linecap="round" stroke-linejoin="round" stroke-miterlimit="10" x1="167.9" y1="653.7" x2="167.9" y2="211.6"/>
<line fill="none" stroke="#333333" stroke-width="16" stroke-linecap="round" stroke-linejoin="round" stroke-miterlimit="10" x1="935.5" y1="555.1" x2="935.5" y2="106.5"/>
<path fill="none" stroke="#333333" stroke-width="16" stroke-linecap="round" stroke-linejoin="round" stroke-miterlimit="10" d="
	M168.7,204.6c0,0,107.8-98.4,235.7-101.6c133.2-3.4,171.6,101.6,352.2,101.6c103.4,0,178.7-98.2,178.7-98.2"/>
<path fill="none" stroke="#333333" stroke-width="16" stroke-linecap="round" stroke-linejoin="round" stroke-miterlimit="10" d="
	M168.7,653.7c0,0,107.8-98.4,235.7-101.6c133.2-3.4,171.6,101.6,352.2,101.6c103.4,0,178.7-98.2,178.7-98.2"/>
<path fill="none" stroke="#333333" stroke-width="16" stroke-linecap="round" stroke-linejoin="round" stroke-miterlimit="10" d="
	M168.7,561.8c0,0,107.8-98.4,235.7-101.6c133.2-3.4,171.6,101.6,352.2,101.6c103.4,0,178.7-98.2,178.7-98.2"/>
<path fill="none" stroke="#333333" stroke-width="16" stroke-linecap="round" stroke-linejoin="round" stroke-miterlimit="10" d="
	M168.7,469.8c0,0,107.8-98.4,235.7-101.6c133.2-3.4,171.6,101.6,352.2,101.6c103.4,0,178.7-98.2,178.7-98.2"/>
<path fill="none" stroke="#333333" stroke-width="16" stroke-linecap="round" stroke-linejoin="round" stroke-miterlimit="10" d="
	M466.7,283.2c88.7,23,140.9,94.6,290,94.7c103.4,0,178.7-98.2,178.7-98.2"/>
<path fill="none" stroke="#333333" stroke-width="16" stroke-linecap="round" stroke-linejoin="round" stroke-miterlimit="10" d="
	M465.5,191c89.4,22.7,141.4,94.9,291.2,95c103.4,0,178.7-98.2,178.7-98.2"/>
<line fill="none" stroke="#333333" stroke-width="18" stroke-linecap="round" stroke-linejoin="round" stroke-miterlimit="10" x1="46.5" y1="921.4" x2="151" y2="921.4"/>
<g>
	<path fill="#333333" d="M98.4,85.8c6,0,12.6,2.1,18.9,6.9c16.2,21.3,1.4,44.7-18.9,44.7c-6,0-12.6-2.1-18.9-6.9l0,0
		C63.3,109.2,78.1,85.8,98.4,85.8 M98.4,69.8C98.4,69.8,98.4,69.8,98.4,69.8c-16,0-30.4,8.9-37.5,23.3c-7.4,15-5.2,32.6,5.8,47.1
		c0.9,1.2,1.9,2.2,3.1,3.1c8.7,6.6,18.6,10.1,28.5,10.1c16,0,30.3-8.9,37.5-23.2c7.4-15,5.2-32.6-5.8-47.1c-0.9-1.1-1.9-2.2-3-3
		C118.2,73.3,108.3,69.8,98.4,69.8L98.4,69.8z"/>
</g>
<line fill="none" stroke="#333333" stroke-width="16" stroke-linecap="round" stroke-linejoin="round" stroke-miterlimit="10" x1="464.1" y1="373.8" x2="464.1" y2="115.3"/>
</svg>
